<svg width="760" height="340" viewBox="0 0 760 340" fill="none" xmlns="http://www.w3.org/2000/svg">
  <defs>
    <linearGradient id="bg" x1="0" y1="0" x2="760" y2="340" gradientUnits="userSpaceOnUse">
      <stop stop-color="#FBFAF7"/>
      <stop offset="1" stop-color="#F1EEE7"/>
    </linearGradient>
    <filter id="shadow" x="0" y="0" width="760" height="340" filterUnits="userSpaceOnUse" color-interpolation-filters="sRGB">
      <feDropShadow dx="0" dy="18" stdDeviation="18" flood-color="#8D9687" flood-opacity="0.16"/>
    </filter>
    <clipPath id="brazil-shape">
      <path d="M205 24L248 41L286 35L320 49L350 91L340 119L367 152L354 185L330 208L322 241L298 274L273 301L253 330L225 310L195 299L169 281L160 251L130 238L118 204L99 184L111 154L99 126L120 101L132 74L165 61L181 37Z"/>
    </clipPath>
  </defs>

  <rect width="760" height="340" rx="26" fill="url(#bg)"/>

  <g filter="url(#shadow)">
    <g transform="translate(70 6)">
      <path d="M205 24L248 41L286 35L320 49L350 91L340 119L367 152L354 185L330 208L322 241L298 274L273 301L253 330L225 310L195 299L169 281L160 251L130 238L118 204L99 184L111 154L99 126L120 101L132 74L165 61L181 37Z" fill="#AAB19F"/>
      <g clip-path="url(#brazil-shape)">
        <path d="M112 80L170 32L203 57L188 96L151 111L126 105Z" fill="#9AA38F"/>
        <path d="M203 57L248 41L242 86L212 98Z" fill="#C8CDC1"/>
        <path d="M242 86L248 41L286 35L301 78L281 111L251 107Z" fill="#9AA38F"/>
        <path d="M301 78L320 49L350 91L338 118L310 118L281 111Z" fill="#9AA38F"/>
        <path d="M151 111L188 96L200 135L169 160L139 149Z" fill="#C8CDC1"/>
        <path d="M188 96L212 98L230 140L220 178L200 174L169 160L200 135Z" fill="#9AA38F"/>
        <path d="M212 98L251 107L250 145L220 178L230 140Z" fill="#C8CDC1"/>
        <path d="M251 107L281 111L310 118L322 160L301 182L258 173L250 145Z" fill="#9AA38F"/>
        <path d="M139 149L169 160L180 211L160 242L130 238L118 204L99 184Z" fill="#9AA38F"/>
        <path d="M169 160L200 174L220 178L215 224L180 211Z" fill="#C8CDC1"/>
        <path d="M220 178L258 173L301 182L322 241L282 257L242 244L215 224Z" fill="#9AA38F"/>
        <path d="M180 211L215 224L242 244L224 283L195 299L169 281L160 251Z" fill="#C8CDC1"/>
        <path d="M242 244L282 257L273 301L253 330L224 283Z" fill="#9AA38F"/>
        <path d="M224 283L253 330L225 310L195 299Z" fill="#9AA38F"/>

        <path d="M203 57L212 98L220 178L215 224" stroke="white" stroke-width="4" stroke-linecap="round" stroke-linejoin="round" opacity="0.9"/>
        <path d="M242 86L251 107L258 173L282 257" stroke="white" stroke-width="4" stroke-linecap="round" stroke-linejoin="round" opacity="0.9"/>
        <path d="M151 111L188 96L212 98L242 86L301 78" stroke="white" stroke-width="4" stroke-linecap="round" stroke-linejoin="round" opacity="0.9"/>
        <path d="M139 149L169 160L200 174L220 178L250 145L322 160" stroke="white" stroke-width="4" stroke-linecap="round" stroke-linejoin="round" opacity="0.9"/>
        <path d="M160 242L180 211L215 224L242 244L282 257" stroke="white" stroke-width="4" stroke-linecap="round" stroke-linejoin="round" opacity="0.9"/>
        <path d="M195 299L224 283L273 301" stroke="white" stroke-width="4" stroke-linecap="round" stroke-linejoin="round" opacity="0.9"/>
      </g>
      <path d="M205 24L248 41L286 35L320 49L350 91L340 119L367 152L354 185L330 208L322 241L298 274L273 301L253 330L225 310L195 299L169 281L160 251L130 238L118 204L99 184L111 154L99 126L120 101L132 74L165 61L181 37Z" stroke="rgba(255,255,255,0.85)" stroke-width="4" stroke-linejoin="round"/>
    </g>
  </g>

  <g transform="translate(430 146)">
    <rect width="22" height="22" rx="2" fill="#9AA38F"/>
    <text x="34" y="17" fill="#484D42" font-family="Inter, Arial, sans-serif" font-size="24" font-weight="600">Estado com cobertura Perifa Mídia</text>
    <rect y="52" width="22" height="22" rx="2" fill="#C8CDC1"/>
    <text x="34" y="69" fill="#484D42" font-family="Inter, Arial, sans-serif" font-size="24" font-weight="600">Em expansão</text>
  </g>
</svg>
